<svg width="64" height="64" viewBox="0 0 64 64" fill="none" xmlns="http://www.w3.org/2000/svg">
<rect width="64" height="64" rx="32" fill="url(#paint0_radial_144_191)"/>
<path fill-rule="evenodd" clip-rule="evenodd" d="M25.0721 16H38.9441C44.3681 16 48.0001 19.808 48.0001 25.472V38.5456C48.0001 44.192 44.3681 48 38.9441 48H25.0721C19.6481 48 16.0001 44.192 16.0001 38.5456V25.472C16.0001 19.808 19.6481 16 25.0721 16ZM31.088 36.7842L38.688 29.1842C39.232 28.6402 39.232 27.7602 38.688 27.2002C38.144 26.6562 37.248 26.6562 36.704 27.2002L30.096 33.8082L27.296 31.0082C26.752 30.4642 25.856 30.4642 25.312 31.0082C24.768 31.5522 24.768 32.4322 25.312 32.9922L29.12 36.7842C29.392 37.0562 29.744 37.1842 30.096 37.1842C30.464 37.1842 30.816 37.0562 31.088 36.7842Z" fill="url(#paint1_radial_144_191)"/>
<defs>
<radialGradient id="paint0_radial_144_191" cx="0" cy="0" r="1" gradientUnits="userSpaceOnUse" gradientTransform="translate(67.0221 -12.0904) rotate(126.623) scale(161.335 285.968)">
<stop stop-color="#0EAEC8"/>
<stop offset="0.390625" stop-color="#2B45D0"/>
<stop offset="0.886471" stop-color="#23A9D1"/>
</radialGradient>
<radialGradient id="paint1_radial_144_191" cx="0" cy="0" r="1" gradientUnits="userSpaceOnUse" gradientTransform="translate(32.0001 32) rotate(45) scale(44.5477)">
<stop stop-color="white"/>
<stop offset="1" stop-color="white" stop-opacity="0"/>
</radialGradient>
</defs>
</svg>
